<svg version="1" xmlns="http://www.w3.org/2000/svg" width="186.667" height="186.667" viewBox="0 0 140.000000 140.000000"><path d="M43 16.9c-10.8 3.5-20.9 12.4-25.8 22.9l-2.7 5.7-.3 38.6c-.3 37-.2 38.7 1.7 41l1.9 2.4H101.5l5.6-2.6c7.2-3.4 13.4-9.6 16.8-16.8l2.6-5.6V18.8l-2.4-1.9c-2.2-1.8-4.3-1.9-39-1.8-32.2 0-37.3.2-42.1 1.8zm79.8 39.3c-.4 38-.5 39.5-2.6 45-3 7.5-9.9 15-17 18.5-6.3 3.1-3.1 2.9-62.5 3.5l-24.7.3V90c0-36.6.7-42.1 5.7-50.7 3.4-5.8 10.8-13.2 16.6-16.6 8.8-5.2 12.3-5.6 50-5.6l34.9-.1-.4 39.2z"/><path d="M49.5 23.4c-10 3.2-17.4 8.6-22.3 16.4-5.8 9-6.2 12.3-6.2 47.5v31.9l36.8-.4 36.7-.3 5.7-2.8c6.5-3.2 12.1-8.9 15.2-15.6 2-4.4 2.1-6.3 2.4-41.4l.3-36.7-32.3.1c-23.2 0-33.4.4-36.3 1.3zm-.9 19.1l-.7 6.5h3.4c3.1 0 3.5-.4 4.1-3.1.3-1.7.6-4.1.6-5.3 0-2.9 1.7-5.3 2.8-4.1.6.6.3 5.6-.9 13C55.2 67.7 55.1 68 53.3 68c-1.2 0-1.4-.7-1-3.3.3-1.7.9-5.3 1.3-8l.6-4.7h-6.9l-1.2 7.5c-1.1 6.9-2.4 9.6-3.8 8.1-.3-.3.5-7.5 1.8-16.1C45.9 39.9 46.8 36 47.9 36c1.1 0 1.2 1.2.7 6.5zm19.8-.7c.5 2.8 1.2 5.2 1.6 5.2.3 0 1.8-2.5 3.3-5.5 1.5-3 3.1-5.5 3.7-5.5 1.7 0 1.2 1.7-2.7 9.3-2.5 4.9-4 9.6-4.7 14.7-.8 5.5-1.5 7.5-2.6 7.5-.9 0-1.4-.8-1.3-2 1.3-11.1 1.3-15.8 0-22.3-1.4-6.7-1.4-7.3.2-7 1.1.2 1.9 2 2.5 5.6zm17-4.9c.3.4-.2 6.2-1.1 12.8C82.6 62 82.8 65 85.4 65c2.8 0 4.4-4.3 6.5-16.4 1.1-6.5 2.3-12.1 2.6-12.4.3-.3 1-.1 1.5.4 1 1-2.4 24.4-4.1 27.5-2.1 4-10.9 4.9-12.3 1.3-.3-.8.3-7.6 1.4-15 1.1-7.4 2-13.7 2-14 0-.7 1.9-.4 2.4.5zM43 87.6l.5 11.9 2.9-8.3c2.1-6.2 3.3-8.2 4.5-8 1.2.3 1.7 2 2.1 7.8.5 7.1.6 7.4 1.8 4.6.7-1.6 2.5-6.9 4-11.8 1.5-5 3.2-8.8 3.9-8.8.7 0 1.3.5 1.3 1.1 0 2-9.1 29.4-10 30.3-2.1 2.1-3.9-1.6-4.2-8.7l-.3-7.2-2.9 8.3c-2.1 6.3-3.2 8.2-4.5 8-1.4-.3-1.6-2.4-1.9-16.2-.2-12.4 0-15.7 1-15.4.9.3 1.4 4 1.8 12.4zm32.4-3.9c.4 4.9.9 12.1 1.2 16 .5 6.1.4 7.3-.9 7.3-1.6 0-2.7-2.9-2.7-7.8 0-2.9-.3-3.2-2.9-3.2-2.5 0-3.1.6-4.6 4.7-2.1 5.7-3.1 7.1-4.4 5.8-.8-.9 1.7-8.1 10-29.3.5-1.2 1.5-2.2 2.3-2.2 1 0 1.5 2.2 2 8.7zm13.2-2.2l-.7 6.5h3.4c3.1 0 3.5-.4 4.1-3.1.3-1.7.6-4.1.6-5.3 0-2.9 1.7-5.3 2.8-4.1.6.6.3 5.6-.9 13-2.7 18.2-2.8 18.5-4.6 18.5-1.2 0-1.4-.7-1-3.3.3-1.7.9-5.3 1.3-8l.6-4.7h-6.9l-1.2 7.5c-1.1 6.9-2.4 9.6-3.8 8.1-.3-.3.5-7.5 1.8-16.1C85.9 78.9 86.8 75 87.9 75c1.1 0 1.2 1.2.7 6.5z"/><path d="M71.3 84.7c-.3 1-1.2 3.3-1.9 5-1.3 3.2-1.2 3.3 1.2 3.3 2.2 0 2.4-.4 2.4-5 0-5.1-.6-6.3-1.7-3.3z"/></svg>