<?xml version="1.0" standalone="no"?>
<!DOCTYPE svg PUBLIC "-//W3C//DTD SVG 20010904//EN"
 "http://www.w3.org/TR/2001/REC-SVG-20010904/DTD/svg10.dtd">
<svg version="1.0" xmlns="http://www.w3.org/2000/svg"
 width="356.000000pt" height="356.000000pt" viewBox="0 0 356.000000 356.000000"
 preserveAspectRatio="xMidYMid meet">
<metadata>
Created by potrace 1.11, written by Peter Selinger 2001-2013
</metadata>
<g transform="translate(0.000000,356.000000) scale(0.100000,-0.100000)"
fill="#000000" stroke="none">
<path d="M1430 3531 c-181 -38 -335 -92 -480 -169 -463 -246 -821 -711 -927
-1204 -26 -119 -24 -512 2 -708 23 -166 90 -379 155 -490 14 -25 29 -52 32
-61 23 -61 232 -315 349 -424 218 -203 503 -359 779 -426 167 -41 228 -47 430
-47 113 0 230 4 260 9 30 5 66 11 80 13 173 25 389 109 610 237 141 81 379
299 489 449 55 74 171 259 171 273 0 3 15 38 34 79 55 121 103 270 121 378 3
19 9 55 13 80 4 25 7 149 7 275 0 199 -3 244 -23 335 -48 228 -127 423 -250
615 -145 227 -362 436 -596 574 -167 98 -406 189 -566 215 -19 3 -46 9 -60 12
-14 4 -131 8 -260 10 -226 3 -240 2 -370 -25z"/>
</g>
</svg>
